<?xml version="1.0" encoding="UTF-8"?>
<svg version="1.1" xmlns="http://www.w3.org/2000/svg" width="500" height="500">
<path d="M0 0 C165 0 330 0 500 0 C500 165 500 330 500 500 C335 500 170 500 0 500 C0 335 0 170 0 0 Z " fill="#0B0B0B" transform="translate(0,0)"/>
<path d="M0 0 C1.29550781 1.17175781 1.29550781 1.17175781 2.6171875 2.3671875 C3.88175781 3.50800781 3.88175781 3.50800781 5.171875 4.671875 C23.53431129 22.11904966 36.70276735 47.79117012 37.73803711 73.35083008 C38.58843722 108.96922043 31.62746965 139.30263384 6.63305664 165.80273438 C-4.17908022 176.91234327 -16.02206318 183.77328131 -30.3828125 189.3671875 C-31.18074219 189.71652344 -31.97867188 190.06585938 -32.80078125 190.42578125 C-43.76127538 194.42196746 -55.81741647 194.87544177 -67.35253906 194.44091797 C-69.29674451 194.37031311 -71.24224361 194.3385515 -73.1875 194.30859375 C-93.42565113 193.60261173 -112.17566216 185.5611713 -127.3828125 172.3671875 C-128.8678125 171.3771875 -128.8678125 171.3771875 -130.3828125 170.3671875 C-130.3828125 210.6271875 -130.3828125 250.8871875 -130.3828125 292.3671875 C-153.8128125 292.3671875 -177.2428125 292.3671875 -201.3828125 292.3671875 C-201.3828125 190.7271875 -201.3828125 89.0871875 -201.3828125 -15.6328125 C-178.2828125 -15.6328125 -155.1828125 -15.6328125 -131.3828125 -15.6328125 C-131.3828125 -8.3728125 -131.3828125 -1.1128125 -131.3828125 6.3671875 C-126.15641959 1.79749385 -126.15641959 1.79749385 -120.94140625 -2.78515625 C-87.42218765 -30.99562199 -32.75129789 -28.19459558 0 0 Z " fill="#E7E2D8" transform="translate(411.3828125,170.6328125)"/>
<path d="M0 0 C24.75 0 49.5 0 75 0 C75.06623729 31.44878658 75.12159083 62.89750539 75.15319599 94.34634003 C75.15694774 98.06601717 75.16083075 101.78569417 75.16479492 105.50537109 C75.16558185 106.24583721 75.16636878 106.98630332 75.16717956 107.74920779 C75.18020457 119.71119562 75.20384226 131.67313983 75.23145839 143.63510185 C75.25959369 155.92519126 75.27619336 168.21525796 75.28226548 180.50537825 C75.28636515 188.0783397 75.29927494 195.65117784 75.3237494 203.22410131 C75.34160379 209.04819199 75.34334526 214.8722051 75.33932304 220.69631767 C75.34014353 223.0729644 75.34604572 225.44961611 75.35761642 227.82623482 C75.41677068 240.61133545 74.9969358 252.53554374 72 265 C71.70551743 266.31687402 71.41268411 267.63411786 71.12144756 268.95171356 C67.94149719 282.89992888 61.67575255 295.41591149 52 306 C51.47148437 306.6084375 50.94296875 307.216875 50.3984375 307.84375 C33.70698877 325.93300478 6.33376768 334.09840285 -17.66015625 335.32421875 C-22.11949621 335.43125862 -26.54880715 335.26494073 -31 335 C-31.81355957 334.95601074 -32.62711914 334.91202148 -33.46533203 334.86669922 C-56.13654362 333.51052557 -75.3686877 325.96215153 -94 313 C-94.96679688 312.36191406 -95.93359375 311.72382813 -96.9296875 311.06640625 C-97.86039063 310.40511719 -98.79109375 309.74382812 -99.75 309.0625 C-100.59046875 308.47597656 -101.4309375 307.88945312 -102.296875 307.28515625 C-104 305 -104 305 -103.80444336 301.40405273 C-103.1016236 296.76041513 -101.56738654 292.59572937 -99.83203125 288.25 C-99.51473557 287.43362061 -99.19743988 286.61724121 -98.87052917 285.77612305 C-97.85972886 283.18064651 -96.8365552 280.59027152 -95.8125 278 C-95.14431811 276.29330683 -94.4769936 274.58627773 -93.81054688 272.87890625 C-92.8262343 270.35743931 -91.8413386 267.83622509 -90.85281372 265.31640625 C-87.81879785 257.57504848 -84.89256123 249.79514973 -82 242 C-78.00925958 242 -77.14295597 243.37686667 -74.1875 246 C-62.4380581 255.85336794 -49.86065471 262.72359661 -34.17578125 262.28125 C-26.35729798 261.5888382 -20.70299125 259.3499008 -14.69140625 254.3046875 C-13 253 -13 253 -10 252 C-8.89641228 250.2060327 -8.89641228 250.2060327 -8 248 C-7.5978125 247.22785156 -7.195625 246.45570313 -6.78125 245.66015625 C0.06643947 231.77688339 -0.69581218 217.07774307 -0.68115234 201.96166992 C-0.67184027 199.75288023 -0.66166972 197.54409402 -0.65071106 195.33531189 C-0.62354119 189.37346929 -0.60830042 183.41165015 -0.59528303 177.44976211 C-0.57959527 171.20641517 -0.55282317 164.96311573 -0.5272522 158.71980286 C-0.48586018 148.25193742 -0.45123775 137.78406786 -0.421875 127.31616211 C-0.39163004 116.5404269 -0.35725275 105.76471775 -0.31738281 94.98901367 C-0.31492126 94.32334207 -0.31245972 93.65767046 -0.30992357 92.97182699 C-0.29754782 89.63191303 -0.28508712 86.29199939 -0.27259517 82.95208585 C-0.16942356 55.30142157 -0.08158027 27.650737 0 0 Z " fill="#E7E2D8" transform="translate(134,30)"/>
<path d="M0 0 C0.87043945 -0.01015137 1.74087891 -0.02030273 2.63769531 -0.03076172 C15.36707036 0.13969955 25.82908771 4.96728462 35.125 13.5625 C45.85924611 24.80971009 48.05726177 38.28156109 47.75390625 53.1796875 C47.41415318 59.99666854 45.64194006 65.40622605 42.375 71.4375 C41.94058594 72.2521875 41.50617188 73.066875 41.05859375 73.90625 C34.56730974 84.70656299 24.85773995 91.5361786 12.94921875 95.1796875 C-0.37377716 98.36325117 -13.5419435 96.99448925 -25.33203125 90.00390625 C-33.44075491 84.4645567 -39.22009786 78.20354697 -43.625 69.4375 C-43.95242188 68.79683594 -44.27984375 68.15617187 -44.6171875 67.49609375 C-50.11796201 55.7873023 -48.62388539 40.38905595 -44.625 28.4375 C-39.22980123 15.83235379 -30.07501282 7.21115384 -17.375 2.0625 C-11.59256503 0.28614787 -6.00237969 0.04958029 0 0 Z " fill="#0C0C0C" transform="translate(326.625,208.5625)"/>
<path d="M0 0 C0.33 0 0.66 0 1 0 C1 101.64 1 203.28 1 308 C0.67 308 0.34 308 0 308 C-0.33 250.58 -0.66 193.16 -1 134 C-1.33 134 -1.66 134 -2 134 C-1.93019456 133.42335413 -1.86038912 132.84670826 -1.78846836 132.25258827 C-1.01453794 125.31673111 -0.83040673 118.45668338 -0.79467773 111.48193359 C-0.78477814 110.27103058 -0.77487854 109.06012756 -0.76467896 107.81253052 C-0.73868547 104.52398348 -0.71674477 101.2354407 -0.69667697 97.94685316 C-0.67465047 94.49820451 -0.64734415 91.04959755 -0.62062073 87.60098267 C-0.57091719 81.08480064 -0.52589652 74.5685952 -0.48259836 68.05236781 C-0.43303373 60.62782399 -0.37818757 53.20332205 -0.32291877 45.77881885 C-0.20944215 30.51925136 -0.10252984 15.25964521 0 0 Z " fill="#171716" transform="translate(209,155)"/>
</svg>
